<?xml version="1.0" encoding="UTF-8" standalone="no"?>
<!-- Created with Inkscape (http://www.inkscape.org/) -->

<svg
   xmlns:dc="http://purl.org/dc/elements/1.1/"
   xmlns:cc="http://creativecommons.org/ns#"
   xmlns:rdf="http://www.w3.org/1999/02/22-rdf-syntax-ns#"
   xmlns:svg="http://www.w3.org/2000/svg"
   xmlns="http://www.w3.org/2000/svg"
   xmlns:sodipodi="http://sodipodi.sourceforge.net/DTD/sodipodi-0.dtd"
   xmlns:inkscape="http://www.inkscape.org/namespaces/inkscape"
   version="1.1"
   id="svg64"
   width="391.67999"
   height="391.67999"
   viewBox="0 0 391.68 391.68"
   sodipodi:docname="icon.svg"
   inkscape:version="0.92.2 5c3e80d, 2017-08-06">
  <metadata
     id="metadata70">
    <rdf:RDF>
      <cc:Work
         rdf:about="">
        <dc:format>image/svg+xml</dc:format>
        <dc:type
           rdf:resource="http://purl.org/dc/dcmitype/StillImage" />
        <dc:title></dc:title>
      </cc:Work>
    </rdf:RDF>
  </metadata>
  <defs
     id="defs68" />
  <sodipodi:namedview
     pagecolor="#ffffff"
     bordercolor="#666666"
     borderopacity="1"
     objecttolerance="10"
     gridtolerance="10"
     guidetolerance="10"
     inkscape:pageopacity="0"
     inkscape:pageshadow="2"
     inkscape:window-width="1920"
     inkscape:window-height="948"
     id="namedview66"
     showgrid="false"
     fit-margin-top="0"
     fit-margin-left="0"
     fit-margin-right="0"
     fit-margin-bottom="0"
     inkscape:zoom="1.7096257"
     inkscape:cx="227.64997"
     inkscape:cy="190.91814"
     inkscape:window-x="0"
     inkscape:window-y="1"
     inkscape:window-maximized="1"
     inkscape:current-layer="svg64" />
  <path
     style="fill:#000000;stroke-width:0.98636496"
     d="m 9.7500423,387.97534 c -2.2505435,-3.41768 -6.2829458,-28.7258 -8.1897698,-51.40049 -4.166551,-49.54591 0.03213,-94.7802 12.3502695,-133.05523 5.082864,-15.79351 9.597634,-25.79348 18.844062,-41.73855 l 8.451313,-14.57391 -0.0764,-8.8845 c -0.06022,-7.00306 0.546972,-12.21657 2.867197,-24.61866 3.261194,-17.431776 5.92998,-25.573131 12.132616,-37.011505 8.165112,-15.057411 21.82399,-29.853206 31.634525,-34.267674 5.423016,-2.440194 14.320445,-3.490486 19.809615,-2.338392 5.3932,1.131962 14.97128,0.36817 20.63442,-1.645445 3.22408,-1.146365 8.86767,-5.223731 16.85186,-12.17511 C 162.46897,11.10868 169.98669,7.4791916 184.437,7.2549306 c 2.83932,-0.04407 6.05351,-0.573924 7.14263,-1.177458 3.19382,-1.769857 14.49393,-4.30695 23.76517,-5.33574016 51.663,-5.73283174 108.60139,22.09313756 147.59243,72.12887456 17.97966,23.072607 28.15791,50.228743 28.72916,76.650943 0.22712,10.50494 -2.41684,27.27688 -5.71404,36.24721 -5.74322,15.62499 -16.77945,30.24573 -29.38704,38.93182 -3.9929,2.75095 -80.82473,41.00778 -170.73736,85.01521 -89.912643,44.00741 -164.354209,80.55811 -165.425717,81.22375 -2.860302,1.77692 -8.577914,0.18587 -10.6522274,-2.96421 z M 159.9776,297.06956 c 73.85936,-36.13084 135.30251,-66.24825 136.54032,-66.92754 2.20621,-1.21075 2.10368,-1.37535 -5.20083,-8.34983 -10.18503,-9.72483 -16.7209,-17.78699 -35.69899,-44.03558 -8.94613,-12.37335 -19.46844,-26.205 -23.38295,-30.73698 -35.51159,-41.11334 -67.08441,-50.430056 -111.5858,-32.92757 -47.344176,18.62059 -77.439029,53.34755 -92.716074,106.98672 -3.91728,13.75396 -9.382718,51.73893 -9.698272,67.40342 -0.315985,15.68601 0.730235,39.73051 2.378056,54.65278 1.811538,16.40495 2.59064,20.29638 3.988144,19.91982 0.597661,-0.16104 61.517035,-29.85439 135.376396,-65.98524 z m 159.59507,-96.6517 c 4.62319,-13.04425 6.94089,-25.93384 5.51436,-30.66762 -1.60518,-5.32655 -4.72923,-7.5682 -16.74878,-12.01805 -12.85409,-4.7588 -15.30929,-6.15224 -19.73415,-11.2001 -6.74097,-7.69006 -9.13066,-16.75964 -9.27183,-35.18937 -0.0535,-6.99057 -0.33268,-13.760606 -0.62026,-15.044556 -0.8248,-3.682206 -4.0255,-7.914603 -6.37588,-8.431002 -1.18215,-0.259707 -8.93263,0.215296 -17.22328,1.055644 -11.17799,1.132973 -16.81275,1.154135 -21.80161,0.08189 -10.39614,-2.234561 -13.48927,-6.114729 -22.90837,-28.738393 -9.41439,-22.612399 -14.7009,-28.284663 -26.80964,-28.765962 -8.81933,-0.35055 -15.49782,2.994956 -28.37233,14.212707 -20.12097,17.531719 -27.33293,20.298464 -48.32489,18.53912 -11.153013,-0.934733 -14.746027,0.281775 -22.37122,7.5743 -11.249541,10.758759 -18.895,25.614356 -22.571086,43.856982 l -2.133389,10.58702 5.4157,-4.71932 c 12.309472,-10.72662 25.996026,-19.48151 41.957415,-26.838846 39.1518,-18.046908 72.32737,-17.419887 102.30087,1.93354 19.52872,12.609386 33.66942,28.077526 63.77856,69.765576 16.0237,22.18591 24.16643,31.79592 32.57981,38.45062 9.7824,7.73754 9.35324,7.87655 13.72,-4.44418 z m 23.89245,6.31223 c 7.37774,-4.18205 17.48657,-14.22809 21.41575,-21.28264 C 380.94193,156.61093 373.63746,118.1029 345.90705,85.420555 326.26713,62.27342 301.17118,43.784514 275.38381,33.464071 261.18812,27.782755 237.41472,23.379453 224.45864,24.031713 c -4.82091,0.242709 -8.92816,0.407223 -9.12722,0.365604 -0.1991,-0.04143 0.91276,2.038207 2.47072,4.62184 1.55798,2.583624 5.42338,10.996667 8.5898,18.695656 3.16643,7.698987 6.3728,14.645028 7.12526,15.435643 2.44382,2.567739 8.04962,2.984167 20.85644,1.54933 6.91327,-0.77456 15.69857,-0.998887 19.52288,-0.498495 6.44802,0.843687 7.30175,1.238625 11.74874,5.435042 8.95861,8.453848 11.9357,17.933609 11.96133,38.087907 0.0161,12.70193 1.04217,18.22581 3.89467,20.96813 1.0539,1.01316 7.18234,3.81849 13.61876,6.234 15.14998,5.68566 19.36512,8.91266 24.16095,18.49696 4.16464,8.32285 5.15224,14.67731 4.10755,26.42851 -0.58915,6.62747 -3.67541,20.07147 -6.22758,27.1283 -1.27432,3.52348 -0.28348,3.48416 6.30418,-0.25002 z"
     id="path74"
     inkscape:connector-curvature="0" />
</svg>
